<?xml version="1.0" encoding="UTF-8" standalone="no"?>
<!-- Created with Inkscape (http://www.inkscape.org/) -->

<svg
   width="16"
   height="16"
   viewBox="0 0 16 16"
   version="1.1"
   id="svg1"
   inkscape:version="1.4.2 (f4327f4, 2025-05-13)"
   sodipodi:docname="visage_logo.svg"
   inkscape:export-filename="..\src-tauri\icons\visage_logo1024x1024.png"
   inkscape:export-xdpi="6144"
   inkscape:export-ydpi="6144"
   xmlns:inkscape="http://www.inkscape.org/namespaces/inkscape"
   xmlns:sodipodi="http://sodipodi.sourceforge.net/DTD/sodipodi-0.dtd"
   xmlns="http://www.w3.org/2000/svg"
   xmlns:svg="http://www.w3.org/2000/svg">
  <sodipodi:namedview
     id="namedview1"
     pagecolor="#ffffff"
     bordercolor="#000000"
     borderopacity="0.25"
     inkscape:showpageshadow="2"
     inkscape:pageopacity="0.0"
     inkscape:pagecheckerboard="0"
     inkscape:deskcolor="#d1d1d1"
     inkscape:document-units="px"
     inkscape:zoom="51.574601"
     inkscape:cx="8.0465964"
     inkscape:cy="9.4135484"
     inkscape:window-width="2560"
     inkscape:window-height="1369"
     inkscape:window-x="-8"
     inkscape:window-y="-8"
     inkscape:window-maximized="1"
     inkscape:current-layer="svg1" />
  <defs
     id="defs1" />
  <g
     inkscape:groupmode="layer"
     id="layer2"
     inkscape:label="Layer 2"
     style="display:inline;fill:#000080">
    <circle
       style="fill:#000080"
       id="path8"
       cx="8.0272074"
       cy="7.9108706"
       r="7.7751451" />
  </g>
  <g
     inkscape:label="Layer 1"
     inkscape:groupmode="layer"
     id="layer1"
     style="display:inline">
    <path
       style="fill:#f9f9f9;stroke-width:1.43606"
       d="M 9.9888593,15.162502 V 8.1209781 c 0,0 -0.911011,-0.9114663 -2.1256917,-0.035744"
       id="path1-2" />
    <path
       style="fill:#f9f9f9;stroke-width:1.43606"
       d="M 9.9787913,0.60523411 V 7.6467598 c 0,0 -0.911012,0.9114662 -2.125693,0.035742"
       id="path1-1-7" />
    <path
       style="fill:#f9f9f9;stroke-width:1.03499"
       d="M 11.795001,13.288709 V 8.0666884 c 0,0 -0.638082,-0.6759474 -1.488859,-0.02651"
       id="path1-2-8" />
    <path
       style="fill:#f9f9f9;stroke-width:1.03499"
       d="m 11.787949,2.492983 v 5.2220228 c 0,0 -0.638083,0.6759466 -1.488859,0.026506"
       id="path1-1-7-6" />
    <path
       style="fill:#f9f9f9;stroke-width:0.761181"
       d="M 13.46538,11.950841 V 8.0699999 c 0,0 -0.4644,-0.5023428 -1.083602,-0.019701"
       id="path1-2-8-6" />
    <path
       style="fill:#f9f9f9;stroke-width:0.761181"
       d="m 13.460247,3.9277977 v 3.8808428 c 0,0 -0.464401,0.5023425 -1.083601,0.019698"
       id="path1-1-7-6-0" />
    <path
       style="fill:#f9f9f9;stroke-width:1.43606"
       d="M 5.6238185,15.16948 V 8.1279562 c 0,0 0.911011,-0.9114663 2.125692,-0.035744"
       id="path1-2-9" />
    <path
       style="fill:#f9f9f9;stroke-width:1.43606"
       d="M 5.6338865,0.61221222 V 7.6537379 c 0,0 0.911012,0.9114662 2.125693,0.035742"
       id="path1-1-7-3" />
    <path
       style="fill:#f9f9f9;stroke-width:1.03499"
       d="M 3.8176765,13.295687 V 8.0736665 c 0,0 0.638082,-0.6759474 1.488859,-0.02651"
       id="path1-2-8-4" />
    <path
       style="fill:#f9f9f9;stroke-width:1.03499"
       d="m 3.8247285,2.4999611 v 5.2220228 c 0,0 0.638083,0.6759466 1.488859,0.026506"
       id="path1-1-7-6-4" />
    <path
       style="fill:#f9f9f9;stroke-width:0.761181"
       d="M 2.1472975,11.957819 V 8.076978 c 0,0 0.4644,-0.5023428 1.083602,-0.019701"
       id="path1-2-8-6-6" />
    <path
       style="fill:#f9f9f9;stroke-width:0.761181"
       d="m 2.1524305,3.9347758 v 3.8808428 c 0,0 0.464401,0.5023425 1.083601,0.019698"
       id="path1-1-7-6-0-0" />
    <path
       style="fill:#f9f9f9;stroke-width:0.0193894"
       d="m 3.8309351,10.633612 -0.00153,-2.5511717 0.043626,-0.039676 C 3.8970248,8.0209431 3.95368,7.979038 3.9989309,7.9496423 l 0.082274,-0.053447 -0.082274,-0.054352 C 3.95368,7.8119503 3.8969926,7.7715642 3.8729588,7.7520968 L 3.829261,7.7167019 3.83418,5.153554 3.839099,2.5904061 4.5640275,5.1439968 c 0.3987106,1.4044748 0.728794,2.5644344 0.7335186,2.5776876 0.00484,0.01359 -0.042729,0.055863 -0.1091019,0.096947 -0.064731,0.040068 -0.1175406,0.077213 -0.1173556,0.082545 1.851e-4,0.00533 0.048953,0.039128 0.1083734,0.075102 0.099485,0.06023 0.107141,0.069887 0.096719,0.1219955 -0.012718,0.06359 -1.3998798,4.9623411 -1.4266029,5.0380371 -0.010063,0.02851 -0.017743,-1.002426 -0.018643,-2.502699 z"
       id="path1" />
    <path
       style="fill:#f9f9f9;stroke-width:0.0193894"
       d="M 5.6341483,11.609847 5.6326175,8.1347505 5.7330687,8.0553484 C 5.7883168,8.0116771 5.867882,7.958416 5.9098801,7.9369902 5.9518782,7.9155643 5.9786583,7.8913687 5.9693914,7.883222 5.9601245,7.8750752 5.8849219,7.8223411 5.8022747,7.7660349 L 5.6520069,7.6636599 5.6535376,4.2002283 C 5.6544562,2.1218855 5.6620498,0.7561822 5.6725256,0.78527026 5.682127,0.81193067 6.1523094,2.3737253 6.7173753,4.2559249 7.5236747,6.9416588 7.7396911,7.683159 7.7211775,7.7015857 7.7082029,7.7144996 7.6313486,7.7627802 7.55039,7.8088761 L 7.4031927,7.892687 7.564932,7.9873795 c 0.088957,0.052081 0.1617395,0.1053819 0.1617395,0.1184469 0,0.019207 -2.0578246,6.8931226 -2.0835142,6.9597286 -0.00411,0.01066 -0.00817,-1.544404 -0.00901,-3.455708 z"
       id="path2" />
    <path
       style="fill:#f9f9f9;stroke-width:0.0193894"
       d="m 5.6341483,11.609847 -0.00153,-3.4750965 0.1004512,-0.079402 c 0.055248,-0.043671 0.1337752,-0.096403 0.1745045,-0.1171813 0.040729,-0.020779 0.074053,-0.04075 0.074053,-0.04438 0,-0.00363 -0.054533,-0.042507 -0.1211837,-0.086393 -0.066651,-0.043886 -0.14084,-0.095327 -0.1648638,-0.114313 l -0.04368,-0.03452 0.0049,-3.4584099 0.0049,-3.45840981 1.0417531,3.46796231 c 0.8228566,2.7392625 1.03675,3.4729421 1.0179429,3.4916618 -0.013096,0.013035 -0.089589,0.061152 -0.1699844,0.1069274 L 7.4052366,7.891521 7.5659531,7.986852 c 0.088394,0.052432 0.1607163,0.105723 0.1607163,0.118424 0,0.019392 -2.0602334,6.902837 -2.0832301,6.960279 -0.00427,0.01066 -0.00845,-1.544404 -0.00929,-3.455708 z"
       id="path3" />
    <path
       style="fill:#f9f9f9;stroke-width:0.0193894"
       d="m 5.6341483,11.611405 -0.00153,-3.4735392 0.069223,-0.060779 C 5.7399143,8.0436588 5.818441,7.9895708 5.8763458,7.956891 5.9342508,7.924212 5.9816273,7.895159 5.9816273,7.89233 5.9816273,7.8895 5.9270943,7.851279 5.8604436,7.807393 5.7937918,7.7635079 5.7196033,7.7120672 5.6955795,7.6930812 l -0.04368,-0.03452 0.0049,-3.4591555 0.0049,-3.45915514 1.0345587,3.44425324 c 0.5690073,1.8943393 1.0358069,3.4592241 1.0373323,3.477522 0.00244,0.029256 -0.068797,0.081083 -0.2954489,0.2149518 -0.019093,0.011277 0.018444,0.043146 0.1308783,0.1111151 0.086707,0.052417 0.1576495,0.1058046 0.1576495,0.1186396 0,0.019746 -2.0604825,6.9028817 -2.0831395,6.9588227 -0.00432,0.01066 -0.00854,-1.543703 -0.00938,-3.45415 z"
       id="path4" />
    <path
       style="fill:#f9f9f9;stroke-width:0.0193894"
       d="m 5.6341483,11.613024 -0.00153,-3.4719202 0.053321,-0.050185 C 5.7152648,8.0633167 5.7937346,8.0065847 5.8603156,7.9648473 L 5.981372,7.8889615 5.8215368,7.7822177 5.6617016,7.6754737 5.6583569,4.2061353 C 5.6554733,1.215053 5.6587456,0.74748827 5.6820949,0.81435434 5.7696571,1.0651092 7.7426464,7.677731 7.7340509,7.691639 c -0.00575,0.0093 -0.079562,0.057066 -0.1640303,0.1061458 -0.084469,0.04908 -0.1535793,0.091223 -0.1535793,0.093652 0,0.00243 0.069802,0.046614 0.1551151,0.098188 0.085313,0.051574 0.1551151,0.1050443 0.1551151,0.1188226 0,0.022104 -2.0305027,6.8052546 -2.0738697,6.9280236 -0.010031,0.0284 -0.017757,-1.389474 -0.018654,-3.423447 z"
       id="path5" />
    <path
       style="fill:#f9f9f9;stroke-width:0.0193894"
       d="m 5.6345345,11.613024 -0.00192,-3.4719202 0.053321,-0.050185 C 5.7152648,8.0633167 5.7932099,8.0069164 5.8591496,7.9655847 L 5.97904,7.8904361 5.8203708,7.7837554 5.6617016,7.6770748 5.656801,4.2084983 c -0.0027,-1.907717 -0.00115,-3.46483018 0.00342,-3.46025135 0.012232,0.012232 2.0674407,6.86510635 2.0721457,6.90934895 0.00368,0.034563 -0.053529,0.077217 -0.2942275,0.2193818 -0.019093,0.011277 0.018444,0.043146 0.1308783,0.1111151 0.086707,0.052417 0.1576495,0.1064695 0.1576495,0.1201173 0,0.020223 -1.9811263,6.6385279 -2.0652026,6.8991769 -0.02064,0.06399 -0.025353,-0.529872 -0.026934,-3.394363 z"
       id="path6" />
    <path
       style="fill:#f9f9f9;stroke-width:0.0193894"
       d="m 5.6341483,11.613024 -0.00153,-3.4719202 0.053321,-0.050185 C 5.7152648,8.0633167 5.7932099,8.0069164 5.8591496,7.9655847 L 5.97904,7.8904361 5.8203708,7.7837554 5.6617016,7.6770748 5.656801,4.2084983 c -0.0027,-1.907717 -9.781e-4,-3.46465399 0.00382,-3.45985982 0.00479,0.004794 0.4719301,1.55281852 1.0380797,3.44005392 0.5661497,1.8872358 1.0339617,3.4464818 1.0395821,3.4649913 0.00764,0.025155 -0.020693,0.052879 -0.1121831,0.1097813 -0.2229664,0.1386729 -0.2186517,0.1186049 -0.048768,0.2268235 0.082098,0.052298 0.1492857,0.1055998 0.1493064,0.1184492 3.76e-5,0.023237 -2.0128112,6.7506383 -2.0640865,6.8986493 -0.023097,0.06667 -0.027083,-0.409732 -0.028399,-3.394363 z"
       id="path7" />
  </g>
</svg>
